<svg width="400" height="73" viewBox="0 0 400 73" fill="none" xmlns="http://www.w3.org/2000/svg">
<path d="M156.941 4.8987L168.28 4.88281L168.276 22.0611L180.777 22.0656L180.777 11.3032L192.088 11.303L192.09 22.0625L204.204 22.0615L204.226 31.418L192.087 31.4291L192.069 45.1469C192.062 54.9213 191.25 61.4833 204.206 58.2377C204.183 61.3954 204.196 64.5534 204.245 67.7107C198.098 69.2576 189.474 69.3206 184.691 64.566C179.969 59.873 180.74 52.4961 180.753 46.3672L180.785 31.4387L173.053 31.4272L168.274 31.4363L168.259 46.8842C168.257 49.78 168.076 54.3734 168.647 57.0225C170.545 59.3815 172.04 58.9197 174.75 58.7204C174.721 61.7112 174.755 64.7653 174.76 67.7613C167.339 68.9086 161.185 68.6812 158.172 60.8833C154.168 66.2495 149.384 68.8883 142.544 68.6496C137.193 68.5127 132.119 66.2419 128.453 62.3433C119.935 53.1863 120.058 35.0034 129.398 26.5008C137.366 19.2481 149.501 19.2211 156.934 27.217L156.941 4.8987ZM147.922 58.786C149.994 58.3009 151.966 57.5208 153.463 55.9593C161.266 47.8188 157.73 28.9005 143.973 30.8996C135.477 32.0465 133.161 40.4909 134.144 47.9078C135.146 55.4623 140.177 59.8269 147.829 58.799L147.922 58.786Z" fill="#161160"/>
<path d="M8.23854 4.8972L26.9923 4.88818C30.3319 20.5022 34.4048 36.6404 37.2853 52.2829C40.2603 36.4761 44.0095 20.6199 47.5114 4.89941L66.2874 4.88953C66.4762 11.895 67.1059 19.4548 67.5283 26.4993L70.0237 67.7521C66.116 67.7504 62.1181 67.7031 58.2184 67.7513C57.9998 57.8177 57.0571 46.5442 56.524 36.4839L56.0049 26.6822C55.9581 25.6235 55.8585 21.8254 55.6721 20.898L55.6262 17.5058L55.0053 20.4817C52.8314 30.6135 50.5201 40.7152 48.0722 50.7843C46.8289 56.0977 45.4964 62.5619 44.0517 67.7513L29.9931 67.7482C25.9251 51.0903 22.4248 34.136 18.4131 17.5249C18.0414 34.1631 16.3447 51.2383 15.9078 67.7443L4.54395 67.7383C5.89388 49.7949 6.49069 31.6917 7.76836 13.7346C7.97321 10.8555 8.19282 7.77592 8.23854 4.8972Z" fill="#161160"/>
<path d="M256.418 21.1267C269.569 19.3242 281.688 28.5321 283.476 41.6838C285.262 54.8357 276.038 66.9424 262.883 68.713C249.749 70.4804 237.668 61.2773 235.884 48.148C234.099 35.0188 243.29 22.9263 256.418 21.1267ZM261.306 58.744C264.749 58.0803 267.49 56.9469 269.479 53.8928C273.401 47.8742 272.86 37.1633 266.473 32.9324C263.843 31.1913 261.124 30.93 258.102 31.0967C254.573 31.7841 251.836 32.9488 249.788 36.0917C245.837 42.1572 246.528 52.6428 252.92 56.8764C255.623 58.6663 258.21 58.8589 261.306 58.744Z" fill="#161160"/>
<path d="M93.1415 21.3479C100.951 20.3896 109.172 23.1224 113.824 29.6877C118.172 35.824 118.742 43.2388 117.581 50.4326C106.898 50.2354 95.4245 50.3812 84.6983 50.4336C86.0228 54.0955 87.8726 56.7268 91.7602 58.0117C98.8754 60.3633 106.708 58.982 113.376 55.8927L115.855 54.5914C116.02 57.2503 115.911 61.2971 115.912 64.0656C112.129 66.3487 107.91 67.8152 103.526 68.3707C96.2602 69.324 87.4182 68.1454 81.4108 63.6052C71.2386 55.9171 70.9704 38.9948 78.3275 29.3334C82.0345 24.4653 87.1074 22.1201 93.1415 21.3479ZM84.6046 41.5525L97.8978 41.5457L107.247 41.5389C106.33 34.2994 102.38 29.8893 94.6234 30.8532C94.51 30.8672 94.3967 30.8842 94.2841 30.9037C88.206 31.7936 85.4565 35.7125 84.6046 41.5525Z" fill="#161160"/>
<path d="M311.444 21.3326C316.123 20.3859 322.707 22.4563 326.053 25.9056C332.573 32.6282 331.724 41.7037 331.718 50.3042L331.704 67.7469H320.288L320.298 50.2736C320.31 43.1928 321.918 32.3975 312.695 30.8936C309.894 30.4261 307.022 31.091 304.713 32.7415C304.478 32.9363 304.252 33.1414 304.035 33.3561C300.049 37.3453 300.832 45.3252 300.836 50.6202L300.846 67.7479L289.514 67.7459L289.52 22.0673L300.443 22.0663L300.434 29.214C303.151 24.4308 305.995 22.2548 311.444 21.3326Z" fill="#161160"/>
<path d="M379.987 21.3453C384.159 20.3563 391.362 22.2144 395.196 24.0711L395.198 34.3941C389.683 31.3338 382.988 29.6725 377.067 32.6771C370.33 36.0952 368.966 46.1657 372.29 52.3402C373.768 55.1433 376.323 57.2234 379.369 58.101C384.946 59.7681 390.304 58.0606 395.212 55.4257V58.1127C395.204 60.6485 395.216 63.1844 395.249 65.7201C384.542 71.1598 369.034 69.0033 362.702 58.3002C353.427 42.6257 361.396 23.6996 379.987 21.3453Z" fill="#161160"/>
<path d="M230.759 21.5575C232.487 21.5288 233.996 21.8363 235.674 22.1583L235.653 32.9285C229.207 31.7231 222.387 32.644 220.88 40.3939C220.274 43.5059 220.553 47.4628 220.553 50.6988L220.563 67.7449L209.081 67.7417L209.085 65.4744L209.081 22.0685L220.024 22.0662L220.009 30.1688C222.306 24.961 224.885 22.0629 230.759 21.5575Z" fill="#161160"/>
<path d="M338.915 22.0679L350.454 22.0649C350.602 32.9501 350.259 43.9146 350.532 54.8021C350.651 59.5852 354.358 59.0584 357.85 58.7027C357.856 60.7167 358.003 66.0223 357.774 67.7719C348.518 69.4238 339.69 67.6862 338.983 56.6525C338.749 53.0045 338.913 49.1368 338.913 45.4712L338.915 22.0679Z" fill="#161160"/>
<path d="M343.389 4.56442C347.01 3.74153 350.614 6.00478 351.446 9.62349C352.275 13.2422 350.021 16.8504 346.403 17.689C342.774 18.5302 339.151 16.2663 338.318 12.6365C337.484 9.00666 339.756 5.38985 343.389 4.56442Z" fill="#161160"/>
<path d="M55.0049 20.4817L55.6258 17.5059L55.6717 20.8981C55.2372 20.7858 55.3695 20.8255 55.0049 20.4817Z" fill="#010113" fill-opacity="0.0235294"/>
</svg>
